<svg fill="#FFFFFF" xmlns="http://www.w3.org/2000/svg" xmlns:xlink="http://www.w3.org/1999/xlink" xml:space="preserve" version="1.1" style="shape-rendering:geometricPrecision;text-rendering:geometricPrecision;image-rendering:optimizeQuality;" viewBox="0 0 13.85 15.673" x="0px" y="0px" fill-rule="evenodd" clip-rule="evenodd"><defs><style type="text/css">
   
    .fil0 {fill:#FFFFFF}
   
  </style></defs><g><path class="fil0" d="M6.925 15.673c0.47,0 0.895,-0.19 1.202,-0.497 0.25,-0.249 0.422,-0.577 0.478,-0.943l-3.36 0c0.056,0.366 0.228,0.694 0.478,0.943 0.307,0.307 0.732,0.497 1.202,0.497zm0.949 -14.018c-0.052,-0.117 -0.125,-0.223 -0.215,-0.312 -0.187,-0.188 -0.447,-0.304 -0.734,-0.304 -0.287,0 -0.547,0.116 -0.735,0.304 -0.089,0.089 -0.162,0.195 -0.214,0.312 0.307,-0.06 0.624,-0.092 0.949,-0.092 0.324,0 0.642,0.031 0.949,0.092zm-3.026 0.366c0.015,-0.551 0.245,-1.049 0.608,-1.412 0.376,-0.376 0.895,-0.609 1.469,-0.609 0.573,0 1.093,0.233 1.469,0.609 0.363,0.363 0.593,0.861 0.608,1.412 0.534,0.248 1.018,0.589 1.43,1.001 0.9,0.9 1.458,2.141 1.458,3.506l0 5.229c0,0.143 0.117,0.259 0.26,0.259l0.851 0c0.234,0 0.446,0.095 0.599,0.25 0.154,0.153 0.25,0.366 0.25,0.599 0,0.233 -0.096,0.445 -0.25,0.599 -0.153,0.154 -0.366,0.249 -0.599,0.249l-4.117 0 -3.919 0 -4.116 0c-0.233,0 -0.446,-0.095 -0.6,-0.249l-0.011 -0.011c-0.147,-0.153 -0.238,-0.36 -0.238,-0.588 0,-0.233 0.096,-0.446 0.249,-0.599 0.154,-0.154 0.366,-0.25 0.6,-0.25l0.851 0c0.143,0 0.259,-0.116 0.259,-0.259l0 -5.229c0,-1.365 0.559,-2.606 1.459,-3.506 0.412,-0.413 0.896,-0.753 1.43,-1.001z"></path></g></svg>