<svg fill="#FFFFFF" xmlns="http://www.w3.org/2000/svg" xmlns:xlink="http://www.w3.org/1999/xlink" xml:space="preserve" version="1.1" style="shape-rendering:geometricPrecision;text-rendering:geometricPrecision;image-rendering:optimizeQuality;" viewBox="0 0 15.461 16.561" x="0px" y="0px" fill-rule="evenodd" clip-rule="evenodd"><defs><style type="text/css">
   
    .fil0 {fill:#FFFFFF}
   
  </style></defs><g><path class="fil0" d="M12.223 10.18c-1.046,0 -1.992,-0.424 -2.678,-1.109 -0.685,-0.686 -1.109,-1.632 -1.109,-2.678 0,-1.046 0.424,-1.993 1.109,-2.678 0.336,-0.336 0.735,-0.609 1.178,-0.8 -0.364,-0.312 -0.772,-0.576 -1.212,-0.78 -0.016,-0.582 -0.258,-1.108 -0.642,-1.492 -0.397,-0.397 -0.946,-0.643 -1.552,-0.643 -0.606,0 -1.155,0.246 -1.552,0.643 -0.384,0.384 -0.627,0.91 -0.642,1.492 -0.565,0.262 -1.076,0.622 -1.511,1.058 -0.951,0.951 -1.542,2.262 -1.542,3.705l0 5.524c0,0.151 -0.122,0.274 -0.274,0.274l-0.899 0c-0.247,0 -0.471,0.101 -0.634,0.264 -0.162,0.162 -0.263,0.387 -0.263,0.633 0,0.241 0.096,0.46 0.251,0.622l0.012 0.011c0.163,0.162 0.387,0.263 0.634,0.263l4.075 0 4.69 0 4.075 0c0.247,0 0.471,-0.101 0.633,-0.263 0.163,-0.162 0.264,-0.387 0.264,-0.633 0,-0.246 -0.101,-0.471 -0.264,-0.633 -0.161,-0.163 -0.386,-0.264 -0.633,-0.264l-0.899 0c-0.152,0 -0.275,-0.123 -0.275,-0.274l0 -2.257c-0.112,0.01 -0.225,0.015 -0.34,0.015zm-3.131 4.858l-3.55 0c0.059,0.387 0.241,0.733 0.504,0.997 0.326,0.324 0.775,0.526 1.271,0.526 0.497,0 0.946,-0.201 1.27,-0.526 0.264,-0.264 0.446,-0.61 0.505,-0.997zm5.421 -6.355c0.586,-0.586 0.948,-1.396 0.948,-2.29 0,-0.894 -0.362,-1.704 -0.948,-2.29 -0.586,-0.586 -1.396,-0.948 -2.29,-0.948 -0.894,0 -1.704,0.362 -2.29,0.948 -0.586,0.586 -0.948,1.396 -0.948,2.29 0,0.894 0.362,1.704 0.948,2.29 0.586,0.586 1.396,0.948 2.29,0.948 0.894,0 1.704,-0.362 2.29,-0.948zm-6.193 -6.935c-0.325,-0.063 -0.66,-0.097 -1.003,-0.097 -0.343,0 -0.678,0.034 -1.003,0.097 0.055,-0.123 0.132,-0.235 0.227,-0.329 0.198,-0.199 0.473,-0.322 0.776,-0.322 0.303,0 0.578,0.123 0.776,0.322 0.094,0.094 0.172,0.206 0.227,0.329z"></path></g></svg>